<svg width="32" height="32" viewBox="0 0 32 32" fill="none" xmlns="http://www.w3.org/2000/svg">
<path d="M20 13.3333L26.0707 10.2987C26.2739 10.1971 26.4997 10.1492 26.7267 10.1594C26.9536 10.1696 27.1742 10.2377 27.3675 10.3571C27.5608 10.4765 27.7203 10.6433 27.831 10.8417C27.9417 11.0401 27.9999 11.2635 28 11.4907V20.5093C27.9999 20.7365 27.9417 20.9599 27.831 21.1583C27.7203 21.3567 27.5608 21.5235 27.3675 21.6429C27.1742 21.7623 26.9536 21.8304 26.7267 21.8406C26.4997 21.8508 26.2739 21.8029 26.0707 21.7013L20 18.6667V13.3333ZM6.66667 24H17.3333C18.0406 24 18.7189 23.719 19.219 23.219C19.719 22.7189 20 22.0406 20 21.3333V10.6667C20 9.95942 19.719 9.28115 19.219 8.78105C18.7189 8.28095 18.0406 8 17.3333 8H6.66667C5.95942 8 5.28115 8.28095 4.78105 8.78105C4.28095 9.28115 4 9.95942 4 10.6667V21.3333C4 22.0406 4.28095 22.7189 4.78105 23.219C5.28115 23.719 5.95942 24 6.66667 24Z" stroke="#787491" stroke-width="2" stroke-linecap="round" stroke-linejoin="round"/>
</svg>
