<svg width="32" height="32" viewBox="0 0 32 32" fill="none" xmlns="http://www.w3.org/2000/svg">
<path d="M22.6667 10.6667H25.3333C26.0406 10.6667 26.7189 10.9476 27.219 11.4477C27.719 11.9478 28 12.6261 28 13.3333V21.3333C28 22.0406 27.719 22.7189 27.219 23.219C26.7189 23.7191 26.0406 24 25.3333 24H22.6667V29.3333L17.3333 24H12C11.6498 24.0004 11.3029 23.9315 10.9794 23.7974C10.6558 23.6634 10.362 23.4667 10.1147 23.2187M10.1147 23.2187L14.6667 18.6667H20C20.7072 18.6667 21.3855 18.3857 21.8856 17.8856C22.3857 17.3855 22.6667 16.7073 22.6667 16V8.00001C22.6667 7.29277 22.3857 6.61449 21.8856 6.11439C21.3855 5.61429 20.7072 5.33334 20 5.33334H6.66667C5.95942 5.33334 5.28115 5.61429 4.78105 6.11439C4.28095 6.61449 4 7.29277 4 8.00001V16C4 16.7073 4.28095 17.3855 4.78105 17.8856C5.28115 18.3857 5.95942 18.6667 6.66667 18.6667H9.33333V24L10.1147 23.2187Z" stroke="#787491" stroke-width="2" stroke-linecap="round" stroke-linejoin="round"/>
</svg>
