<svg width="40" height="40" viewBox="0 0 40 40" fill="none" xmlns="http://www.w3.org/2000/svg">
<path fill-rule="evenodd" clip-rule="evenodd" d="M40 20C40 25.3043 37.8929 30.3914 34.1421 34.1421C30.3914 37.8929 25.3043 40 20 40C14.6957 40 9.60859 37.8929 5.85786 34.1421C2.10714 30.3914 0 25.3043 0 20C0 14.6957 2.10714 9.60859 5.85786 5.85786C9.60859 2.10714 14.6957 0 20 0C25.3043 0 30.3914 2.10714 34.1421 5.85786C37.8929 9.60859 40 14.6957 40 20ZM25 12.5C25 13.8261 24.4732 15.0979 23.5355 16.0355C22.5979 16.9732 21.3261 17.5 20 17.5C18.6739 17.5 17.4021 16.9732 16.4645 16.0355C15.5268 15.0979 15 13.8261 15 12.5C15 11.1739 15.5268 9.90215 16.4645 8.96447C17.4021 8.02678 18.6739 7.5 20 7.5C21.3261 7.5 22.5979 8.02678 23.5355 8.96447C24.4732 9.90215 25 11.1739 25 12.5ZM20 22.5C17.6065 22.4995 15.2632 23.1862 13.2485 24.4785C11.2339 25.7708 9.63261 27.6143 8.635 29.79C10.0417 31.4265 11.7857 32.7394 13.7474 33.6387C15.709 34.538 17.842 35.0024 20 35C22.158 35.0024 24.291 34.538 26.2526 33.6387C28.2143 32.7394 29.9583 31.4265 31.365 29.79C30.3674 27.6143 28.7661 25.7708 26.7515 24.4785C24.7368 23.1862 22.3935 22.4995 20 22.5Z" fill="#787491"/>
</svg>
