<svg width="32" height="32" viewBox="0 0 32 32" fill="none" xmlns="http://www.w3.org/2000/svg">
<path d="M24.4853 7.51467L19.7707 12.2293L24.4853 7.51467ZM19.7707 19.7707L24.4853 24.4853L19.7707 19.7707ZM12.2293 12.2293L7.51467 7.51467L12.2293 12.2293ZM12.2293 19.7707L7.51467 24.4853L12.2293 19.7707ZM28 16C28 17.5759 27.6896 19.1363 27.0866 20.5922C26.4835 22.0481 25.5996 23.371 24.4853 24.4853C23.371 25.5996 22.0481 26.4835 20.5922 27.0866C19.1363 27.6896 17.5759 28 16 28C14.4241 28 12.8637 27.6896 11.4078 27.0866C9.95189 26.4835 8.62902 25.5996 7.51472 24.4853C6.40042 23.371 5.5165 22.0481 4.91345 20.5922C4.31039 19.1363 4 17.5759 4 16C4 12.8174 5.26428 9.76516 7.51472 7.51472C9.76516 5.26428 12.8174 4 16 4C19.1826 4 22.2348 5.26428 24.4853 7.51472C26.7357 9.76516 28 12.8174 28 16ZM21.3333 16C21.3333 17.4145 20.7714 18.771 19.7712 19.7712C18.771 20.7714 17.4145 21.3333 16 21.3333C14.5855 21.3333 13.229 20.7714 12.2288 19.7712C11.2286 18.771 10.6667 17.4145 10.6667 16C10.6667 14.5855 11.2286 13.229 12.2288 12.2288C13.229 11.2286 14.5855 10.6667 16 10.6667C17.4145 10.6667 18.771 11.2286 19.7712 12.2288C20.7714 13.229 21.3333 14.5855 21.3333 16V16Z" stroke="#787491" stroke-width="2" stroke-linecap="round" stroke-linejoin="round"/>
</svg>
